HIERARCHY
ROOT Hips
{
	OFFSET 0.000000 83.214638 0.000000
	CHANNELS 6 Xposition Yposition Zposition Xrotation Yrotation Zrotation
	JOINT Pelvis
	{
		OFFSET 0.000000 0.000000 0.000000
		CHANNELS 3 Xrotation Yrotation Zrotation
		JOINT LeftUpLeg
		{
			OFFSET 8.479700 -4.795502 -0.379100
			CHANNELS 3 Xrotation Yrotation Zrotation
			JOINT LeftLeg
			{
				OFFSET 0.024144 -32.555107 0.112900
				CHANNELS 3 Xrotation Yrotation Zrotation
				JOINT LeftFoot
				{
					OFFSET -0.024144 -32.638630 -3.012600
					CHANNELS 3 Xrotation Yrotation Zrotation
					JOINT LeftToeBase
					{
						OFFSET 0.970200 -13.225400 11.864200
						CHANNELS 3 Xrotation Yrotation Zrotation
						End Site
						{
							OFFSET 0.000000 12.319262 0.000000
						}
					}
					JOINT LFootTongue
					{
						OFFSET 1.142400 -1.059800 6.665200
						CHANNELS 3 Xrotation Yrotation Zrotation
						End Site
						{
							OFFSET 0.000000 12.319262 0.000000
						}
					}
				}
				JOINT LeftPantLeg
				{
					OFFSET 0.918482 -16.533964 -2.284700
					CHANNELS 3 Xrotation Yrotation Zrotation
					End Site
					{
						OFFSET 0.350399 24.744368 0.000000
					}
				}
			}
		}
		JOINT RightUpLeg
		{
			OFFSET -8.479700 -4.795502 -0.379100
			CHANNELS 3 Xrotation Yrotation Zrotation
			JOINT RightLeg
			{
				OFFSET -0.023144 -32.555092 0.112900
				CHANNELS 3 Xrotation Yrotation Zrotation
				JOINT RightFoot
				{
					OFFSET 0.023144 -32.638641 -3.012700
					CHANNELS 3 Xrotation Yrotation Zrotation
					JOINT RightToeBase
					{
						OFFSET -0.970200 -13.225400 11.864200
						CHANNELS 3 Xrotation Yrotation Zrotation
						End Site
						{
							OFFSET 0.000000 12.319244 0.000000
						}
					}
					JOINT RFootTongue
					{
						OFFSET -1.142200 -1.059800 6.665200
						CHANNELS 3 Xrotation Yrotation Zrotation
						End Site
						{
							OFFSET 0.000000 12.319243 0.000000
						}
					}
				}
				JOINT RightPantLeg
				{
					OFFSET -0.919482 -16.533978 -2.284800
					CHANNELS 3 Xrotation Yrotation Zrotation
					End Site
					{
						OFFSET -0.350400 24.744419 0.000000
					}
				}
			}
		}
	}
	JOINT Spine
	{
		OFFSET 0.000000 7.722000 1.166200
		CHANNELS 3 Xrotation Yrotation Zrotation
		JOINT Spine1
		{
			OFFSET 0.000000 12.024101 0.248800
			CHANNELS 3 Xrotation Yrotation Zrotation
			JOINT Spine2
			{
				OFFSET 0.000000 11.502998 -0.491200
				CHANNELS 3 Xrotation Yrotation Zrotation
				JOINT Neck
				{
					OFFSET 0.000000 18.430702 -3.123100
					CHANNELS 3 Xrotation Yrotation Zrotation
					JOINT Head
					{
						OFFSET 0.000000 9.051102 1.034000
						CHANNELS 3 Xrotation Yrotation Zrotation
						JOINT HairB
						{
							OFFSET 0.208400 24.786102 24.822300
							CHANNELS 3 Xrotation Yrotation Zrotation
							End Site
							{
								OFFSET 0.000000 32.263779 0.000000
							}
						}
						JOINT HairA
						{
							OFFSET -7.081100 24.428299 23.196600
							CHANNELS 3 Xrotation Yrotation Zrotation
							End Site
							{
								OFFSET 0.000000 32.263779 0.000000
							}
						}
						JOINT Hat
						{
							OFFSET 16.728800 15.048294 -15.439601
							CHANNELS 3 Xrotation Yrotation Zrotation
							End Site
							{
								OFFSET 0.000000 32.263779 0.000000
							}
						}
					}
				}
				JOINT LeftShoulder
				{
					OFFSET 6.197800 13.665199 -4.064700
					CHANNELS 3 Xrotation Yrotation Zrotation
					JOINT LeftArm
					{
						OFFSET 7.778100 -0.187103 -1.709300
						CHANNELS 3 Xrotation Yrotation Zrotation
						JOINT LeftForeArm
						{
							OFFSET 22.049376 0.000000 0.000000
							CHANNELS 3 Xrotation Yrotation Zrotation
							JOINT LeftHand
							{
								OFFSET 23.009392 0.000000 0.000000
								CHANNELS 3 Xrotation Yrotation Zrotation
								JOINT LeftHandThumb1
								{
									OFFSET 3.507191 -2.063065 3.133727
									CHANNELS 3 Xrotation Yrotation Zrotation
									JOINT LeftHandThumb2
									{
										OFFSET 3.101337 -1.790558 1.790558
										CHANNELS 3 Xrotation Yrotation Zrotation
										JOINT LeftHandThumb3
										{
											OFFSET 3.058640 -1.765907 1.765906
											CHANNELS 3 Xrotation Yrotation Zrotation
											End Site
											{
												OFFSET -0.415260 3.926476 -0.049563
											}
										}
									}
								}
								JOINT LeftHandIndex1
								{
									OFFSET 11.334419 -0.901459 3.706815
									CHANNELS 3 Xrotation Yrotation Zrotation
									JOINT LeftHandIndex2
									{
										OFFSET 3.283112 0.000000 0.000000
										CHANNELS 3 Xrotation Yrotation Zrotation
										JOINT LeftHandIndex3
										{
											OFFSET 3.323853 0.000000 0.000000
											CHANNELS 3 Xrotation Yrotation Zrotation
											End Site
											{
												OFFSET -1.135597 3.097809 0.402452
											}
										}
									}
								}
								JOINT LeftHandMiddle1
								{
									OFFSET 11.335861 0.000000 0.000000
									CHANNELS 3 Xrotation Yrotation Zrotation
									JOINT LeftHandMiddle2
									{
										OFFSET 3.410492 0.000000 0.000000
										CHANNELS 3 Xrotation Yrotation Zrotation
										JOINT LeftHandMiddle3
										{
											OFFSET 3.312172 0.000000 0.000000
											CHANNELS 3 Xrotation Yrotation Zrotation
											End Site
											{
												OFFSET -1.150200 3.080154 0.400270
											}
										}
									}
								}
								JOINT LeftHandRing1
								{
									OFFSET 11.514786 -0.013176 -3.003090
									CHANNELS 3 Xrotation Yrotation Zrotation
									JOINT LeftHandRing2
									{
										OFFSET 3.053307 0.000000 0.000000
										CHANNELS 3 Xrotation Yrotation Zrotation
										JOINT LeftHandRing3
										{
											OFFSET 3.295807 0.000000 0.000000
											CHANNELS 3 Xrotation Yrotation Zrotation
											End Site
											{
												OFFSET -1.281006 3.013344 0.375733
											}
										}
									}
								}
								JOINT LeftHandPinky1
								{
									OFFSET 10.518692 -0.960396 -5.730441
									CHANNELS 3 Xrotation Yrotation Zrotation
									JOINT LeftHandPinky2
									{
										OFFSET 2.861649 0.000000 0.000000
										CHANNELS 3 Xrotation Yrotation Zrotation
										JOINT LeftHandPinky3
										{
											OFFSET 2.863380 0.000000 0.000000
											CHANNELS 3 Xrotation Yrotation Zrotation
											End Site
											{
												OFFSET -0.843597 2.711159 0.369971
											}
										}
									}
								}
							}
							JOINT LSleeve
							{
								OFFSET 6.676277 -0.344902 -1.011730
								CHANNELS 3 Xrotation Yrotation Zrotation
								End Site
								{
									OFFSET 0.000000 14.885353 0.000000
								}
							}
						}
					}
				}
				JOINT RightShoulder
				{
					OFFSET -6.197800 13.665199 -4.064700
					CHANNELS 3 Xrotation Yrotation Zrotation
					JOINT RightArm
					{
						OFFSET -7.778100 -0.187103 -1.709300
						CHANNELS 3 Xrotation Yrotation Zrotation
						JOINT RightForeArm
						{
							OFFSET -22.049376 0.000000 0.000000
							CHANNELS 3 Xrotation Yrotation Zrotation
							JOINT RightHand
							{
								OFFSET -23.009392 0.000000 0.000000
								CHANNELS 3 Xrotation Yrotation Zrotation
								JOINT RightHandThumb1
								{
									OFFSET -3.507191 -2.063065 3.133727
									CHANNELS 3 Xrotation Yrotation Zrotation
									JOINT RightHandThumb2
									{
										OFFSET -3.101337 -1.790558 1.790558
										CHANNELS 3 Xrotation Yrotation Zrotation
										JOINT RightHandThumb3
										{
											OFFSET -3.058640 -1.765907 1.765906
											CHANNELS 3 Xrotation Yrotation Zrotation
											End Site
											{
												OFFSET 0.415260 3.926476 -0.049563
											}
										}
									}
								}
								JOINT RightHandIndex1
								{
									OFFSET -11.334419 -0.901459 3.706815
									CHANNELS 3 Xrotation Yrotation Zrotation
									JOINT RightHandIndex2
									{
										OFFSET -3.283112 0.000000 0.000000
										CHANNELS 3 Xrotation Yrotation Zrotation
										JOINT RightHandIndex3
										{
											OFFSET -3.323853 0.000000 0.000000
											CHANNELS 3 Xrotation Yrotation Zrotation
											End Site
											{
												OFFSET 1.135597 3.097809 0.402452
											}
										}
									}
								}
								JOINT RightHandMiddle1
								{
									OFFSET -11.335861 0.000000 0.000000
									CHANNELS 3 Xrotation Yrotation Zrotation
									JOINT RightHandMiddle2
									{
										OFFSET -3.410492 0.000000 0.000000
										CHANNELS 3 Xrotation Yrotation Zrotation
										JOINT RightHandMiddle3
										{
											OFFSET -3.312172 0.000000 0.000000
											CHANNELS 3 Xrotation Yrotation Zrotation
											End Site
											{
												OFFSET 1.150200 3.080154 0.400270
											}
										}
									}
								}
								JOINT RightHandRing1
								{
									OFFSET -11.514786 -0.013176 -3.003090
									CHANNELS 3 Xrotation Yrotation Zrotation
									JOINT RightHandRing2
									{
										OFFSET -3.053307 0.000000 0.000000
										CHANNELS 3 Xrotation Yrotation Zrotation
										JOINT RightHandRing3
										{
											OFFSET -3.295807 0.000000 0.000000
											CHANNELS 3 Xrotation Yrotation Zrotation
											End Site
											{
												OFFSET 1.281006 3.013344 0.375733
											}
										}
									}
								}
								JOINT RightHandPinky1
								{
									OFFSET -10.518692 -0.960396 -5.730441
									CHANNELS 3 Xrotation Yrotation Zrotation
									JOINT RightHandPinky2
									{
										OFFSET -2.861649 0.000000 0.000000
										CHANNELS 3 Xrotation Yrotation Zrotation
										JOINT RightHandPinky3
										{
											OFFSET -2.863380 0.000000 0.000000
											CHANNELS 3 Xrotation Yrotation Zrotation
											End Site
											{
												OFFSET 0.843597 2.711159 0.369971
											}
										}
									}
								}
							}
							JOINT RSleeve
							{
								OFFSET -6.676277 -0.344902 -1.011730
								CHANNELS 3 Xrotation Yrotation Zrotation
								End Site
								{
									OFFSET 0.000000 14.885353 0.000000
								}
							}
						}
					}
				}
				JOINT Backpack
				{
					OFFSET 0.000000 -2.471497 36.677502
					CHANNELS 3 Xrotation Yrotation Zrotation
					End Site
					{
						OFFSET 0.000000 20.427315 0.000000
					}
				}
				JOINT Hood
				{
					OFFSET 0.000000 18.754097 -10.431000
					CHANNELS 3 Xrotation Yrotation Zrotation
					JOINT Hood1
					{
						OFFSET 0.000000 -5.011002 -7.685901
						CHANNELS 3 Xrotation Yrotation Zrotation
						End Site
						{
							OFFSET 0.000000 9.175140 0.000000
						}
					}
				}
				JOINT LHoodieString
				{
					OFFSET 5.250500 16.397697 3.089900
					CHANNELS 3 Xrotation Yrotation Zrotation
					JOINT LHoodieString1
					{
						OFFSET 0.257700 -6.364304 3.694600
						CHANNELS 3 Xrotation Yrotation Zrotation
						JOINT LHoodieString2
						{
							OFFSET 0.000000 -9.643799 2.679100
							CHANNELS 3 Xrotation Yrotation Zrotation
							End Site
							{
								OFFSET 0.000000 10.009018 0.000000
							}
						}
					}
				}
				JOINT RHoodieString
				{
					OFFSET -5.250500 16.397697 3.089900
					CHANNELS 3 Xrotation Yrotation Zrotation
					JOINT RHoodieString1
					{
						OFFSET -0.257700 -6.364304 3.694600
						CHANNELS 3 Xrotation Yrotation Zrotation
						JOINT RHoodieString2
						{
							OFFSET 0.000000 -9.643799 2.679100
							CHANNELS 3 Xrotation Yrotation Zrotation
							End Site
							{
								OFFSET 0.000000 10.009018 0.000000
							}
						}
					}
				}
			}
			JOINT LBackpack_Strap
			{
				OFFSET 15.223200 -7.719803 -6.610900
				CHANNELS 3 Xrotation Yrotation Zrotation
				End Site
				{
					OFFSET 0.000000 16.040596 0.000000
				}
			}
			JOINT RBackpack_Strap
			{
				OFFSET -15.223000 -7.719803 -6.610900
				CHANNELS 3 Xrotation Yrotation Zrotation
				End Site
				{
					OFFSET 0.000000 16.040596 0.000000
				}
			}
		}
	}
	JOINT BoyFacialAnim_Joint
	{
		OFFSET 1.000000 -82.208099 -1.550900
		CHANNELS 3 Xrotation Yrotation Zrotation
		End Site
		{
			OFFSET 0.000000 30.012791 0.000000
		}
	}
}
MOTION
Frames: 5
Frame Time: 0.033333
-1.180815 74.658920 5.236605 2.580197 -21.595106 2.442821 0.000000 0.000001 -0.000000 -39.743805 -0.320572 9.642279 32.749295 -19.150510 4.524197 6.187131 15.856566 -15.631392 -0.000000 -0.000000 -0.000000 -0.000000 -0.000000 -0.000000 0.000000 0.000002 0.000001 1.064639 -17.069935 -21.982371 22.302070 -6.758432 0.196427 -17.873125 -14.283895 24.849272 0.000000 -0.000000 -0.000000 0.000000 -0.000000 -0.000000 -0.000000 -0.000003 0.000000 16.777721 0.661898 1.682717 -6.046953 6.142678 -2.511301 -17.051545 7.213565 -0.086442 9.269855 15.526798 0.450769 -22.016135 15.107298 -2.017954 0.000000 -0.000002 -0.000000 0.000000 -0.000002 -0.000000 0.000000 -0.000002 -0.000000 0.308187 8.078356 -6.267708 9.876132 3.033719 -59.736978 -24.179059 -34.438627 -20.290574 1.498750 3.887538 20.219126 17.478063 1.314991 14.925427 -1.150193 11.255327 -8.400840 0.000001 0.000000 0.000003 11.243770 -2.743578 -4.715695 -0.076694 -1.043424 -23.440543 -0.000000 -0.000000 -0.000005 2.386603 1.143183 -21.468652 -0.212054 -2.311685 -42.263759 0.000001 -0.000004 0.000001 1.868112 0.344293 -24.411287 -1.779609 -2.040678 -53.766692 -0.000000 0.000000 -0.000002 -0.211370 2.952596 -21.930643 -1.695047 -1.630716 -47.551415 0.000001 0.000004 0.000004 0.000000 0.000003 0.000001 10.127316 -2.800461 3.914328 54.654556 58.040953 -2.526264 -155.927195 67.455768 127.748197 2.778972 -12.291081 -8.569703 55.149553 18.649550 -29.698281 -0.442561 -14.180547 7.313140 -0.000001 -0.000000 -0.000001 5.673390 7.585011 36.844144 1.050466 3.824505 68.900271 -0.000000 0.000001 0.000004 -0.125698 1.886097 45.000759 -1.169001 3.204665 68.417663 -0.000000 0.000002 0.000004 -5.312029 1.216654 58.508821 -0.745231 1.667564 48.011278 0.000001 -0.000002 0.000000 -7.756808 -9.376438 47.263994 -0.526056 1.541579 45.600525 -0.000000 -0.000002 -0.000000 -0.000001 -0.000002 -0.000004 -0.000000 -0.000000 -0.000000 -0.000000 -0.000000 -0.000000 -0.000000 -0.000000 -0.000000 -0.000000 -0.000000 -0.000000 -0.000000 -0.000000 -0.000000 -0.000000 0.000000 -0.000000 -0.000000 -0.000000 -0.000000 -0.000000 -0.000000 -0.000000 -0.000000 0.000000 -0.000000 -0.000001 -0.000000 0.000001 -0.000001 -0.000000 0.000001 0.000000 0.000001 -0.000000 
-1.327470 74.595757 5.349311 2.728250 -20.648365 3.081825 0.000000 0.000000 -0.000000 -39.912549 -0.103666 8.732615 32.604635 -19.674264 4.648805 6.282281 15.879681 -15.598530 -0.000000 -0.000000 0.000000 -0.000000 -0.000000 0.000000 -0.000000 -0.000003 -0.000001 1.267209 -17.256692 -22.403543 22.491219 -7.798818 0.318796 -18.183442 -14.101235 25.164860 -0.000000 -0.000002 -0.000000 -0.000000 -0.000002 -0.000000 -0.000000 0.000001 -0.000002 15.763023 -0.131098 1.049601 -5.838106 5.157293 -2.298318 -16.876477 6.165701 0.036889 7.262240 17.315332 -0.896440 -19.796905 16.868667 -2.140780 -0.000000 0.000002 0.000000 -0.000000 0.000002 0.000000 -0.000000 0.000002 0.000000 0.186845 10.020472 -5.708763 9.074454 3.067580 -58.341516 -19.630312 -33.515031 -17.742079 1.219545 4.500856 23.068458 17.615461 0.624868 14.691336 -1.150194 11.255330 -8.400837 0.000001 0.000001 0.000001 10.190839 -2.869493 -4.483037 -0.046190 -0.970966 -21.749918 -0.000001 -0.000000 -0.000004 2.412513 1.449093 -20.051444 -0.146551 -2.230204 -40.203853 0.000001 -0.000000 -0.000003 2.082254 0.979681 -23.728048 -1.672382 -1.967744 -51.347921 0.000003 -0.000003 -0.000003 -0.081674 3.087117 -21.957361 -1.604646 -1.555625 -45.415236 -0.000001 0.000004 -0.000001 0.000001 -0.000002 0.000001 10.598084 -2.964956 5.717584 44.649592 53.683286 6.379246 -138.859344 61.666984 114.260288 1.063013 -13.680358 -11.118824 55.149550 18.649553 -29.698281 -0.442556 -14.180545 7.313142 0.000001 0.000002 -0.000002 5.673395 7.585015 36.844144 1.050464 3.824504 68.900271 -0.000000 0.000000 -0.000002 -0.125696 1.886096 45.000753 -1.169001 3.204667 68.417663 0.000000 0.000001 -0.000004 -5.312024 1.216653 58.508821 -0.745231 1.667564 48.011281 -0.000001 0.000001 0.000001 -7.756804 -9.376440 47.263994 -0.526055 1.541581 45.600518 0.000001 -0.000000 0.000000 0.000000 0.000001 0.000002 -0.000000 -0.000000 -0.000000 -0.000000 -0.000000 -0.000000 -0.000000 -0.000000 -0.000000 -0.000000 -0.000000 -0.000000 -0.000000 -0.000000 -0.000000 0.000000 -0.000000 0.000000 -0.000000 -0.000000 -0.000000 -0.000000 -0.000000 -0.000000 0.000000 -0.000000 0.000000 -0.000001 -0.000001 -0.000000 -0.000001 -0.000001 -0.000000 0.000000 0.000000 -0.000000 
-1.409149 74.486771 5.438069 2.798204 -19.869287 3.502743 -0.000000 0.000002 -0.000000 -40.231727 0.070171 8.034987 32.870149 -20.132461 4.792027 6.209406 15.898423 -15.502434 0.000000 -0.000002 -0.000000 0.000000 -0.000002 -0.000000 0.000000 -0.000001 0.000002 1.352032 -17.334494 -22.689132 22.963690 -8.480827 0.382750 -18.600699 -14.205022 25.418211 0.000000 -0.000002 -0.000000 0.000000 -0.000002 -0.000000 0.000001 -0.000000 0.000002 15.107772 -0.695291 0.197170 -5.490689 4.715788 -2.231464 -16.554691 5.680617 0.065412 5.944022 16.264284 -2.843045 -20.130880 15.517942 -2.034343 -0.000003 0.000001 0.000001 -0.000003 0.000001 0.000001 -0.000003 0.000001 0.000001 0.287109 8.625116 -6.210694 10.258343 4.519766 -55.013035 -19.535541 -33.956497 -17.867529 -0.482179 12.159933 24.071151 17.771573 -0.191748 14.429412 -1.150196 11.255329 -8.400843 -0.000000 -0.000000 -0.000001 8.969067 -3.030359 -4.208399 -0.013726 -0.886027 -19.794068 -0.000003 0.000001 -0.000002 2.426977 1.805811 -18.406211 -0.072738 -2.132351 -37.787472 0.000001 -0.000003 0.000001 2.310946 1.722499 -22.925562 -1.551545 -1.875306 -48.508103 -0.000001 -0.000001 -0.000002 0.072625 3.252431 -21.989277 -1.503376 -1.461906 -42.907095 0.000001 0.000001 -0.000000 0.000000 0.000000 -0.000000 10.823819 -2.973994 6.622694 32.579312 51.085676 14.417459 -123.234112 54.223134 102.370001 2.511957 -13.830856 -12.890501 55.149546 18.649555 -29.698281 -0.442565 -14.180545 7.313143 -0.000002 0.000001 0.000001 5.673393 7.585013 36.844144 1.050467 3.824505 68.900271 -0.000001 -0.000000 0.000004 -0.125698 1.886096 45.000749 -1.169001 3.204665 68.417657 0.000001 0.000001 -0.000002 -5.312026 1.216654 58.508821 -0.745232 1.667566 48.011278 -0.000001 -0.000000 -0.000001 -7.756807 -9.376438 47.263994 -0.526056 1.541581 45.600515 -0.000001 0.000000 0.000000 -0.000000 0.000000 0.000000 0.000000 0.000000 -0.000000 0.000000 0.000000 -0.000000 0.000000 0.000000 -0.000000 0.000000 0.000000 -0.000000 0.000000 0.000000 -0.000000 0.000001 0.000000 0.000000 0.000000 0.000000 -0.000000 0.000000 0.000000 -0.000000 0.000001 0.000000 0.000000 0.000001 -0.000001 0.000000 0.000001 -0.000001 0.000000 -0.000000 0.000002 -0.000000 
-1.355474 74.325348 5.427838 2.250278 -18.978249 3.000385 0.000000 0.000001 -0.000000 -40.559832 0.120602 7.911118 33.853563 -20.829676 4.982046 5.937813 15.695899 -15.171295 -0.000000 0.000000 -0.000000 -0.000000 0.000000 -0.000000 -0.000000 -0.000001 -0.000001 2.138784 -17.767994 -22.296456 23.314574 -8.943457 0.484977 -18.937560 -14.292954 25.583875 0.000000 -0.000000 -0.000000 0.000000 -0.000000 -0.000000 -0.000002 -0.000002 0.000000 15.760988 -0.736427 0.486805 -5.299662 4.443038 -2.269153 -16.348814 5.428102 -0.020017 4.153918 13.683518 -4.180682 -20.692888 12.744644 -2.136665 0.000001 -0.000001 0.000001 0.000001 -0.000001 0.000001 0.000001 -0.000001 0.000001 0.329844 7.745158 -6.400274 11.024697 7.762835 -52.166850 -22.125520 -33.352784 -18.792996 -1.167588 16.270854 22.872755 17.932795 -1.082061 14.163465 -1.150195 11.255330 -8.400842 0.000000 -0.000001 0.000003 7.669888 -3.220227 -3.908336 0.017425 -0.794897 -17.723082 -0.000000 -0.000001 -0.000004 2.423756 2.186239 -16.655855 0.003141 -2.024144 -35.180863 0.000000 -0.000001 -0.000002 2.529830 2.518098 -22.057469 -1.427634 -1.767504 -45.440951 0.000000 0.000004 -0.000001 0.241967 3.441490 -22.024563 -1.400176 -1.354246 -40.198184 0.000000 0.000001 -0.000000 0.000000 0.000000 0.000000 10.636394 -3.225189 7.903552 11.905097 49.700012 24.413084 -104.344124 50.397046 90.570323 0.007931 -15.445139 -13.978977 55.149553 18.649553 -29.698284 -0.442561 -14.180546 7.313139 -0.000006 -0.000001 -0.000001 5.673393 7.585014 36.844147 1.050467 3.824506 68.900271 -0.000000 0.000001 0.000000 -0.125701 1.886095 45.000756 -1.169001 3.204664 68.417663 -0.000000 0.000001 -0.000000 -5.312029 1.216654 58.508821 -0.745231 1.667565 48.011285 -0.000001 0.000000 0.000002 -7.756809 -9.376442 47.263990 -0.526056 1.541578 45.600525 -0.000001 -0.000001 0.000000 -0.000001 -0.000000 0.000001 -0.000000 0.000000 0.000000 -0.000000 0.000000 0.000000 -0.000000 0.000000 0.000000 -0.000000 0.000000 0.000000 -0.000000 0.000000 -0.000000 -0.000000 0.000000 -0.000000 -0.000000 0.000000 0.000000 -0.000000 0.000000 -0.000000 -0.000000 0.000000 -0.000000 0.000000 0.000001 0.000000 0.000000 0.000001 0.000000 0.000000 0.000001 -0.000000 
-1.294700 74.208237 5.441396 2.136787 -18.632534 2.505666 -0.000000 0.000001 0.000000 -41.109515 0.077346 8.135500 34.798940 -21.202012 5.134993 5.607566 15.625086 -14.929935 0.000000 -0.000000 -0.000000 0.000000 -0.000000 0.000000 0.000001 -0.000001 0.000000 2.409146 -18.030414 -21.876606 23.489149 -9.129083 0.585013 -19.132072 -14.213452 25.651100 0.000000 -0.000001 -0.000000 0.000000 -0.000001 -0.000000 -0.000003 -0.000002 0.000001 16.018559 -0.568072 0.737444 -5.266187 4.575841 -2.332508 -16.307681 5.579762 -0.071116 2.612681 10.145994 -4.265111 -20.994939 8.878796 -1.578496 0.000001 0.000000 0.000001 0.000001 0.000000 0.000001 0.000001 0.000000 0.000001 0.314481 8.089234 -6.267887 11.062030 8.715198 -49.602606 -22.414744 -34.036417 -19.065235 -1.608721 17.602238 23.837329 18.085617 -1.992623 13.915598 -1.150195 11.255331 -8.400836 0.000000 -0.000000 0.000000 6.384694 -3.429961 -3.597160 0.044687 -0.704259 -15.687105 -0.000001 0.000000 -0.000000 2.401650 2.562479 -14.923244 0.075726 -1.912323 -32.550086 0.000001 -0.000001 0.000000 2.720263 3.309813 -21.176484 -1.309867 -1.650589 -42.340363 -0.000001 -0.000002 -0.000002 0.416939 3.647292 -22.061164 -1.302700 -1.239054 -37.459609 -0.000000 0.000001 -0.000000 0.000001 -0.000000 0.000000 10.672665 -3.075603 8.083150 -0.255571 51.486393 28.598103 -90.763515 44.480699 79.966530 -1.535015 -14.121082 -16.881912 55.149553 18.649551 -29.698281 -0.442563 -14.180548 7.313141 -0.000002 0.000001 -0.000002 5.673395 7.585012 36.844147 1.050466 3.824503 68.900271 0.000000 -0.000000 0.000002 -0.125698 1.886094 45.000756 -1.169002 3.204666 68.417663 0.000000 0.000001 -0.000005 -5.312029 1.216654 58.508828 -0.745231 1.667565 48.011278 0.000001 0.000000 0.000004 -7.756808 -9.376440 47.263994 -0.526054 1.541578 45.600522 -0.000000 0.000000 -0.000001 0.000000 -0.000001 -0.000000 0.000000 -0.000000 0.000000 0.000000 -0.000000 0.000000 0.000000 -0.000000 0.000000 0.000000 -0.000000 0.000000 0.000000 -0.000000 -0.000000 0.000001 -0.000000 -0.000000 0.000000 -0.000000 0.000000 0.000000 -0.000000 -0.000000 0.000001 -0.000000 -0.000000 0.000001 -0.000001 -0.000000 0.000001 -0.000001 -0.000000 -0.000000 0.000001 0.000000 
